PathFileType	4	(X/Y/Z)	T1_P1_NoVision_Movement_2_0-680.trc
DataRate	CameraRate	NumFrames	NumMarkers	Units	OrigDataRate	OrigDataStartFrame	OrigNumFrames
60	60	5	27	m	60	0	680
Frame#	Time	RHip			RKnee			RAnkle			RBigToe			RSmallToe			RHeel			LHip			LKnee			LAnkle			LBigToe			LSmallToe			LHeel			Neck			Head			Nose			RShoulder			RElbow			RWrist			RThumb			RIndex			RPinky			LShoulder			LElbow			LWrist			LThumb			LIndex			LPinky		
		X1	Y1	Z1	X2	Y2	Z2	X3	Y3	Z3	X4	Y4	Z4	X5	Y5	Z5	X6	Y6	Z6	X7	Y7	Z7	X8	Y8	Z8	X9	Y9	Z9	X10	Y10	Z10	X11	Y11	Z11	X12	Y12	Z12	X13	Y13	Z13	X14	Y14	Z14	X15	Y15	Z15	X16	Y16	Z16	X17	Y17	Z17	X18	Y18	Z18	X19	Y19	Z19	X20	Y20	Z20	X21	Y21	Z21	X22	Y22	Z22	X23	Y23	Z23	X24	Y24	Z24	X25	Y25	Z25	X26	Y26	Z26	X27	Y27	Z27
1	0.016666666666666666	-82.4424150630422	3831.6184775901884	-574.3002803584347	256.23152481852725	3993.8952479862814	-531.4890574352103	618.3991553339622	4145.040446498602	-524.08860791445	692.8463143806503	4071.0394515380103	-468.82350114140826	696.9246566401678	4076.545069611722	-531.2730808870243	655.7418830362784	4193.611851318737	-531.6746327951423	-113.64155361534159	3901.532747946078	-363.7053375705323	216.76470670929487	4007.2350601249514	-360.661752922976	571.5834787905756	4190.110663846443	-381.1722969780339	672.3434865326107	4181.730454309109	-348.4300517686159	631.9674280853835	4213.862181606633	-327.2041781865891	610.3991486947687	4269.921264981552	-434.0843586175423	-681.514310183759	3732.257737512561	-511.72125617120327	-903.2746900239383	3545.7875992992535	-438.72271543043814	-752.5555238476671	3582.2402442486145	-424.96972927596573	-573.8150538243765	3675.4720238720633	-632.8838054479468	-311.39756011186677	3610.47900284163	-655.8032397240289	-455.58533409693143	3433.7278078515674	-455.9401896721569	-556.6314844397193	3436.057291219385	-403.0502610977447	-554.6064416241684	3415.3203221352865	-375.2683418979202	-536.8691061502585	3413.2689508682524	-388.6043258728175	-628.203060021266	3819.908303715922	-391.3646065747613	-405.5690890455234	4005.162848543602	-343.3563758951552	-145.86628061629048	3988.029237178043	-243.98214146244115	-5.99732460924984	3969.0298793983698	-233.13138363247742	14.156115446915624	3986.7804751683634	-221.14338960750695	-3.2642512012669096	4004.1882602624287	-215.482394850297
2	0.03333333333333333	-77.10676834611549	3834.961878837743	-575.8603560395637	272.2994900067528	4022.885922157675	-555.2281458317865	618.9536649836467	4147.319297843865	-525.0750806973604	695.7627870292731	4090.7367907797716	-476.42932925080066	699.6616421032728	4095.5564908979186	-538.9565918084637	660.9196317178654	4227.855120297842	-539.7413838864907	-102.82307182303569	3907.1638879082466	-364.39428466231186	222.98774132088192	4010.0594191514665	-360.3060828342247	577.7700878118761	4194.046732673536	-380.5120712543578	668.2098892515268	4153.577656825992	-343.9933253868339	638.3774431032139	4217.814553144383	-326.84391453532277	611.0010289457329	4257.201855677658	-422.3386843581756	-681.4773658305513	3732.1419837174953	-511.3775216371294	-903.301854312927	3545.9962890037773	-438.80623799823087	-752.5716622452779	3582.388887523926	-425.0787458384424	-573.4906527598976	3675.719394770372	-638.8074625350822	-304.08861506681677	3585.328999034938	-653.567597924927	-455.517286805049	3432.97636939418	-456.1405802300233	-561.8698716039194	3448.7845038032074	-416.2213508178312	-560.1581971544192	3426.816843400054	-386.5176722871103	-537.1241156428815	3412.8920262096126	-388.5297902322378	-627.4998746051706	3847.540158220347	-396.56085416489213	-405.52817763656645	4005.405120099431	-343.4340228969203	-145.74044195068777	3987.148737642592	-243.7227345203165	-5.190280343055533	3970.0525163123402	-239.50054311506045	19.320457457394543	3987.6167618283143	-220.49988491289602	-3.165303356356078	4002.9264407694545	-215.24761148757847
3	0.05	-77.04955826224457	3835.190234471598	-575.8247533301881	271.3795426619979	4021.38765427048	-548.3801104422145	624.9978233442689	4148.872421287417	-524.0994975712069	695.7820539030679	4090.5273118656405	-476.3235934239197	700.8833065783253	4067.2789686787414	-533.5472649244238	656.2281573177061	4193.937793869918	-532.0196315022836	-102.8329422337605	3907.2177689670966	-364.41437978702095	223.0520840624347	4009.580400568705	-359.98172410609425	577.4388393409098	4193.3723967016585	-380.1077986259387	673.7293693908262	4156.935561532474	-343.31097019615356	638.331309972914	4217.441228751847	-326.647000147766	598.7906629313161	4248.51169269076	-420.46955085740603	-681.4546854792432	3731.922979231296	-511.3733862010199	-903.320844249458	3546.0110348559388	-438.82668157925076	-752.5954499023761	3582.3564593588108	-425.13232339009267	-573.5224122278566	3675.5549008881553	-638.685311110468	-309.2872934234523	3585.369996353898	-654.1610104760376	-460.1161777435127	3432.3583808745284	-456.30158456508235	-561.7360809504471	3448.1293447792427	-415.7714749450674	-554.7298335682932	3414.9300352451755	-374.85072719536106	-536.93873675236	3412.3509441589767	-388.1351198481842	-632.2223693200942	3846.2097590938642	-396.63775559363415	-405.58049601412796	4005.520361880599	-343.41522146796046	-145.82117902366556	3987.660040922249	-243.77949223018467	-5.284883938170889	3971.828538115959	-239.77868706394588	19.09510356162634	3988.5798245241385	-220.7415772689473	-7.693000034319776	3999.655440087873	-213.76426313875103
4	0.06666666666666667	-77.1618074032894	3835.003182804174	-575.784477853801	265.5186041880227	4017.580489424473	-546.3668932707183	618.7088939683758	4146.131031735822	-524.7332678442638	695.3470262542297	4090.119128423607	-476.0251148649006	699.3436945986454	4094.839052110248	-538.4023967085641	656.3668342659867	4194.854050659533	-532.3598280353706	-102.98349878425405	3907.3018398702484	-364.5432857720883	223.02019330999926	4009.9823686129384	-360.20370381729765	578.0282813260887	4194.042597498402	-380.40540562948394	667.3801115432155	4183.156521458423	-349.5277474989757	639.0889959864376	4217.7812347708505	-332.7504331911967	611.9011634649737	4256.889608073785	-422.1218333415132	-681.5060354219247	3731.9799379773535	-511.36567163791284	-903.2127440151218	3546.0456808836943	-438.83933420358596	-752.7309308979392	3582.529022694472	-425.22650297374946	-573.8012311630532	3675.128055259604	-632.7470318271107	-309.3205527522115	3585.437538902466	-654.1641334370108	-460.08493417570224	3432.3058204836843	-456.17871554158864	-556.8926252265634	3436.1903824900655	-403.0249822393761	-554.8603411245277	3414.959816446883	-375.0083687092251	-537.035385569148	3412.4898311357183	-388.3261567704549	-627.517326983546	3849.8222824873446	-397.9030488500668	-405.4179962682652	4005.480257166972	-343.49255197388317	-145.6944145863903	3987.4477348762684	-243.7884094043859	-5.055805567825985	3971.7759223274193	-240.34637105804347	19.41517119090961	3988.1555413173833	-220.84785027494195	-3.1570836107796802	4003.419377165156	-215.35529650650173
5	0.08333333333333333	-77.5188910118758	3834.1360099325852	-574.2313150937878	265.6089629508067	4017.4053687210085	-546.3576095630821	624.9096549621655	4149.588593068589	-524.0208511851638	696.1500994068117	4090.551592103245	-476.1831399493508	706.2735746397017	4099.207939500395	-540.8669612492738	656.1716355218196	4194.931806751271	-532.0948765276893	-107.87555927702904	3904.1456589351737	-363.33230251226735	223.00210457206953	4009.818827024357	-360.2566773122554	584.1860015779077	4198.387436381872	-382.36394542299456	670.4680206233834	4158.7034604327855	-346.7038781517667	639.2183224736503	4217.235120748727	-332.6310603926415	616.0114360356807	4290.101188025338	-429.16184423104795	-681.4843084580533	3731.767522475847	-511.17490942071066	-903.2789109845472	3545.9863762132604	-438.88236442106404	-757.4450208991104	3580.9658341902987	-425.16321001202107	-573.6459168977319	3674.8843145206615	-632.7018255414438	-309.08696893425804	3585.1926842609428	-653.977825035428	-461.41257523289596	3448.221081865343	-469.48536098794614	-556.3303298971374	3434.897927587143	-402.23748183392433	-554.2481749353731	3415.4121563216563	-375.41894144266274	-536.7454327791442	3413.027882656967	-388.8130293903308	-627.4679549705115	3849.529850096751	-397.7848591160376	-405.40363513026347	4005.807891290518	-343.70897870156784	-140.77243738159183	3991.5231081617103	-245.40889347437735	4.702009617315049	3981.038209299545	-244.422163256442	19.672818943416633	3989.0420534128443	-220.99337693934362	1.6003335245597574	4006.650472294704	-216.6335077947114
